<?xml version="1.0" encoding="UTF-8"?>
<svg id="Layer_1" xmlns="http://www.w3.org/2000/svg" version="1.1" viewBox="0 0 216 216">
  <!-- Generator: Adobe Illustrator 30.6.0, SVG Export Plug-In . SVG Version: 2.1.4 Build 109)  -->
  <defs>
    <style>
      .st0 {
        fill: #00747f;
      }
    </style>
  </defs>
  <path class="st0" d="M186.237697,121.137273c-18.936691,28.343659-50.085425,53.652754-77.261706,74.422303-2.177685-.343543-3.607823-1.106037-5.208761-2.427846l-37.062583-30.600595-21.096682-21.164853c-9.384377-9.414701-16.833202-20.011339-22.713965-31.916975-6.931743-14.033352-8.740345-29.474251-4.736568-44.402995,4.362301-16.26556,16.474792-28.970384,30.782599-34.191258,17.678315-6.450761,35.834411-2.909265,49.685443,8.216894l9.502532,9.22449c8.836694-10.630555,20.248406-17.77683,33.793765-19.976775,17.306684-2.810834,34.51815,3.512829,45.754878,16.953162,10.41134,12.453081,14.005647,28.520334,11.495292,44.657133-1.771818,11.389413-6.530054,21.621789-12.934244,31.207315ZM172.739516,129.10014c6.100247-7.889817,11.403675-15.22017,15.482337-24.017917,6.409147-13.824647,7.580699-29.567543,2.018338-43.49402-9.422666-23.59152-35.244869-34.169726-58.419831-23.934281-8.464666,3.738501-15.365744,9.797576-21.223216,17.183237-1.330124,1.677148-3.794471,1.709709-5.181227-.044754-5.530666-6.997158-11.842254-12.781782-19.920277-16.6638-20.502157-9.852628-45.037665-2.543118-56.498493,17.089203-10.169147,17.41968-8.514077,36.926599,1.030145,54.507532,5.947826,10.956193,13.743588,20.218278,21.963942,29.562609l17.77661,17.695283,38.312715,31.721059,34.536771-28.525336c10.861761-9.742418,20.718836-19.630867,30.122186-31.078815Z"/>
  <path class="st0" d="M114.166992,148.891753c-3.971784-2.946351-7.900314-3.338118-11.73096-.291993-6.714247,5.339161-16.244351,5.214242-22.492629-.28743-6.357709-5.598027-7.841992-15.314724-2.933927-22.76978,2.310829-3.510011,6.384951-5.659891,9.006731-8.974013l7.889072-9.972368c4.42803-4.232078,9.751645-6.595742,15.794802-6.057994,5.159553.459121,10.514895,3.3934,13.956431,8.209793,3.250847,4.549527,6.339418,8.560315,10.865246,12.00815,8.902041,6.781692,10.132093,19.908634,1.852949,27.564897-6.097577,5.638826-15.390682,5.627752-22.207714.570736ZM117.754923,144.11739c5.450817,4.279112,13.67639,2.876059,16.835057-3.135191,3.168185-6.029366.64913-12.941627-4.814419-16.694242-4.182169-2.872505-7.377046-6.19806-9.859789-10.623599-2.296553-4.093651-6.483613-6.827424-10.768231-7.160558-4.444213-.345543-9.416612,1.714533-12.12946,5.644411-3.399166,4.92409-6.818247,9.358985-11.822416,12.993355-5.917574,4.297747-7.114836,12.918306-1.841986,18.256383,3.981398,4.030649,10.784808,4.162885,15.228243.713469,5.832294-4.52758,13.104783-4.757827,19.173002.005971Z"/>
  <path class="st0" d="M93.699594,97.392911c-10.586245-1.224108-14.983253-15.584972-11.219602-25.952639,1.339906-3.691017,4.51671-6.598304,7.66652-7.14555,4.195073-.72885,8.002635.695244,10.647286,3.900431,4.998455,6.057881,6.51881,14.64536,3.581849,21.976424-1.695085,4.231167-5.590703,7.809363-10.676053,7.221334ZM95.809158,71.848639c-.821392-.950928-2.782799-1.939412-3.805169-1.816971-5.220255.625186-7.538181,13.100552-.505662,20.430491.794899.828517,3.299051,1.200694,4.292842.88522,4.413676-1.401098,6.380223-12.133158.017989-19.49874Z"/>
  <path class="st0" d="M130.115508,93.123122c-2.546771,3.166897-6.004363,4.673184-9.612796,4.278271-2.969509-.324988-6.438354-2.288961-8.044141-5.566507-3.754439-7.663125-2.50723-17.018705,2.792798-23.604148,2.531124-3.144998,6.043619-4.472458,10.105603-4.01941,2.969045.331149,6.378897,2.84572,7.834489,6.398632,2.989128,7.296076,2.011463,16.186987-3.075952,22.513162ZM127.454982,72.527643c-.514721-1.127444-2.313353-2.471663-3.362356-2.574112-.932442-.091065-3.068759.684394-3.711221,1.421517-6.622287,7.598014-4.457276,19.346646.738145,19.980759,5.042081.615398,10.379048-9.971027,6.335432-18.828164Z"/>
  <path class="st0" d="M84.335991,108.267814c-.733829,4.435903-3.307055,7.38232-6.549142,8.677403-3.725192,1.488063-7.701702.743399-10.92773-1.947284-6.015129-5.016944-8.446357-13.566101-6.166528-21.178372.911964-3.045018,3.641596-5.542244,5.904604-6.430258,3.409504-1.337903,6.885438-.555754,9.864912,1.435253,6.118741,4.088795,9.114878,11.941608,7.873885,19.443257ZM72.515901,93.318489c-.853434-.589616-3.55322-.60868-4.446991-.120709-3.443723,1.880166-3.51256,11.613827,2.752689,17.388773,1.061704.978617,3.849599,1.353255,5.05212.775044,4.449605-2.139515,3.994165-12.96381-3.357818-18.043108Z"/>
  <path class="st0" d="M149.996182,114.293541c-3.292728,3.147142-7.393216,4.110951-11.159313,2.665015-3.478648-1.335574-6.336159-4.12547-7.142159-8.424294-1.322541-7.053813,1.303242-14.929472,7.074459-19.23014,3.03868-2.264402,6.581847-3.146968,10.166984-2.029241,2.954929.921249,5.689545,3.781239,6.665782,7.48209,1.808837,6.857181-.30035,14.465742-5.605754,19.53657ZM150.007634,96.504384c-.320663-1.409076-1.544454-3.051469-2.594145-3.460966-1.016524-.396558-3.458022-.166824-4.290458.42069-4.67623,3.300378-6.728371,8.714147-5.479862,14.304018.383306,1.716152,2.122379,3.503371,3.444567,3.786448,5.342876,1.143894,10.576068-7.772544,8.919898-15.050189Z"/>
</svg>