<?xml version="1.0" encoding="UTF-8"?>
<svg id="Layer_1" xmlns="http://www.w3.org/2000/svg" version="1.1" viewBox="0 0 216 216">
  <!-- Generator: Adobe Illustrator 30.6.0, SVG Export Plug-In . SVG Version: 2.1.4 Build 109)  -->
  <defs>
    <style>
      .st0 {
        fill: #fff;
      }

      .st1 {
        fill: #00747f;
      }
    </style>
  </defs>
  <g>
    <path class="st1" d="M106.015347,211.027344c-57.350586,0-104.008301-46.658203-104.008301-104.008789S48.664761,3.009766,106.015347,3.009766s104.008789,46.658203,104.008789,104.008789-46.658203,104.008789-104.008789,104.008789Z"/>
    <path class="st0" d="M106.015553,4.009868c56.890129,0,103.008659,46.118531,103.008659,103.008656s-46.11853,103.008652-103.008659,103.008652S3.006897,163.908615,3.006897,107.018524,49.125428,4.009868,106.015553,4.009868M106.015553,2.009868C48.113583,2.009868,1.006897,49.116554,1.006897,107.018524s47.106686,105.008652,105.008656,105.008652,105.008659-47.106689,105.008659-105.008652S163.917523,2.009868,106.015553,2.009868h0Z"/>
  </g>
  <g>
    <path class="st0" d="M108.123744,105.06173l8.875507-7.279932c5.219086-4.280836,7.49187-11.121528,6.472357-17.806419-1.00507-6.590192-6.12526-11.522465-12.556368-12.755971-10.488581-2.011742-20.852832,5.054648-20.680559,15.306061.072375,4.306814-2.790242,7.787245-7.226761,8.068705l-6.260916.024168c-4.387151.016935-7.13442-3.579019-7.263104-7.846491-.297818-9.876349,3.405574-19.293531,10.432546-26.335431,12.690663-12.717624,34.283335-14.842431,49.221292-4.928969,8.518641,5.653331,14.207133,14.699618,15.74404,24.778007,1.838108,12.053539-1.707758,23.802029-9.900799,32.729533-2.913372,3.174539-6.127157,5.800924-9.482307,8.519079l-4.169473,3.991544c-2.542719,2.947843-3.516103,6.442625-3.396931,10.295015.123995,4.008284-2.845673,7.65845-6.862252,7.671148l-6.991257.022102c-4.57959.014478-6.829817-3.825303-6.995718-7.975271-.405795-10.150857,3.289118-19.589702,11.040704-26.476876ZM112.015552,107.018524c-7.586669,6.048132-11.521145,14.913325-10.97102,24.502897.105085,1.831797.726132,3.989505,3.00012,4.013944l6.460988.069435c2.062931.02217,3.650402-1.69866,3.538565-3.779154-.405093-7.535927,3.186469-12.634718,8.777004-17.247865,2.968474-2.449499,5.865596-4.757583,8.513177-7.502979,8.222968-8.526765,11.69228-19.982034,9.340516-31.656477-2.84908-14.14318-14.322769-24.333168-28.779128-25.871418-9.926204-1.056212-19.815502,1.662064-27.374692,8.116781-7.468184,6.377007-11.54623,15.626486-11.061974,25.42579.100117,2.025943,1.567352,3.570044,3.632363,3.557389l5.888805-.036088c2.107332-.012914,3.362811-1.828472,3.315158-3.789837-.141533-5.825418,2.389828-11.119175,6.810402-14.874454,5.469987-4.646756,12.771305-6.140314,19.748174-4.400093,7.436032,1.854748,13.000343,7.656601,14.36222,15.198817,1.632535,9.041145-2.051443,17.790675-9.159638,23.457365l-6.041042,4.81595Z"/>
    <path class="st0" d="M117.784691,156.923326c0,5.664095-4.592491,10.255752-10.257616,10.255752s-10.257616-4.591656-10.257616-10.255752,4.592491-10.255752,10.257616-10.255752,10.257616,4.591656,10.257616,10.255752ZM113.789363,156.918345c0-3.451574-2.798562-6.249628-6.250764-6.249628s-6.250764,2.798054-6.250764,6.249628,2.798562,6.249628,6.250764,6.249628,6.250764-2.798054,6.250764-6.249628Z"/>
  </g>
</svg>