<?xml version="1.0" encoding="UTF-8"?>
<svg id="Layer_1" xmlns="http://www.w3.org/2000/svg" version="1.1" viewBox="0 0 216 216">
  <!-- Generator: Adobe Illustrator 30.6.0, SVG Export Plug-In . SVG Version: 2.1.4 Build 109)  -->
  <defs>
    <style>
      .st0 {
        fill: #fff;
      }

      .st1 {
        fill: #00747f;
      }
    </style>
  </defs>
  <g>
    <path class="st1" d="M107.999746,213.481661c-57.350586,0-104.008301-46.658203-104.008301-104.008789S50.64916,5.46506,107.999746,5.46506s104.008789,46.657227,104.008789,104.007812-46.658203,104.008789-104.008789,104.008789Z"/>
    <path class="st0" d="M107.99999,6.464633c56.890137,0,103.008667,46.11853,103.008667,103.008667s-46.11853,103.008667-103.008667,103.008667S4.991353,166.363375,4.991353,109.4733,51.109884,6.464633,107.99999,6.464633M107.99999,4.464633C50.098043,4.464633,2.991353,51.571322,2.991353,109.4733s47.106689,105.008667,105.008636,105.008667,105.008667-47.106689,105.008667-105.008667S165.901967,4.464633,107.99999,4.464633h0Z"/>
  </g>
  <g>
    <path class="st0" d="M159.697116,126.121169c-12.219186,18.289174-32.318377,34.62025-49.854283,48.022115-1.405184-.221677-2.328002-.713687-3.361032-1.566604l-23.915192-19.745496-13.612953-13.656941c-6.055411-6.074978-10.861878-12.912619-14.656529-20.59491-4.472812-9.055233-5.639839-19.018706-3.056342-28.651703,2.814841-10.495598,10.630608-18.693578,19.862937-22.062426,11.4072-4.162451,23.122695-1.877247,32.060282,5.302075l6.131652,5.952241c5.70201-6.859526,13.06559-11.470768,21.805937-12.890316,11.1674-1.813733,22.273358,2.266706,29.524026,10.939284,6.718075,8.035538,9.037355,18.403176,7.417511,28.815689-1.143292,7.349191-4.213616,13.951786-8.346016,20.136992ZM150.987211,131.259329c3.936276-5.091023,7.358394-9.821044,9.990212-15.497923,4.135599-8.920562,4.89156-19.078904,1.302363-28.065174-6.080117-15.222784-22.742284-22.048532-37.696279-15.443956-5.461954,2.412324-9.914979,6.322034-13.694601,11.087744-.858283,1.082205-2.44844,1.103215-3.343265-.028878-3.568746-4.515022-7.641393-8.247638-12.85386-10.752569-13.229326-6.357557-29.061234-1.640985-36.456506,11.027066-6.561796,11.240312-5.493837,23.827446.664717,35.171808,3.837925,7.069649,8.868258,13.046149,14.172565,19.07572l11.470626,11.418149,24.721858,20.468493,22.285374-18.406404c7.008715-6.286443,13.369142-12.667113,19.436795-20.054075Z"/>
    <path class="st0" d="M113.192405,144.030166c-2.562853-1.901178-5.097797-2.153971-7.569579-.188413-4.332469,3.445174-10.481913,3.364569-14.513708-.185468-4.102408-3.612212-5.060164-9.882057-1.893161-14.692544,1.491098-2.264887,4.119986-3.65213,5.811729-5.790617l5.090543-6.434821c2.857254-2.730812,6.292397-4.256002,10.191835-3.909012,3.329279.296254,6.784895,2.189643,9.005598,5.297493,2.097658,2.935651,4.090605,5.523673,7.010964,7.74844,5.744176,4.375989,6.537886,12.846347,1.195643,17.786666-3.934554,3.638538-9.93107,3.631392-14.329863.368276ZM115.507572,140.949437c3.517222,2.761161,8.824898,1.85582,10.863075-2.02303,2.044319-3.89054.418861-8.35078-3.106576-10.772212-2.698608-1.853527-4.76015-3.999392-6.362178-6.855038-1.481885-2.64149-4.183649-4.405498-6.948364-4.620458-2.867696-.222967-6.076211,1.106328-7.826718,3.642142-2.193363,3.177344-4.399577,6.039027-7.628593,8.384159-3.818404,2.773186-4.590956,8.335732-1.18857,11.780207,2.569057,2.600837,6.95906,2.686164,9.826254.460377,3.763376-2.921489,8.456059-3.070059,12.371669.003853Z"/>
    <path class="st0" d="M99.985507,110.799761c-6.830934-.789874-9.66817-10.056439-7.239618-16.746332.864595-2.381685,2.914475-4.257655,4.946938-4.610774,2.706934-.470301,5.163821.448617,6.870322,2.516812,3.225329,3.908939,4.206361,9.45014,2.311242,14.180619-1.093779,2.730224-3.607486,5.03911-6.888884,4.659675ZM101.346735,94.316934c-.530015-.613601-1.795643-1.251435-2.455343-1.172428-3.368448.40341-4.864125,8.453329-.326286,13.183083.512921.534613,2.128762.774766,2.770021.571202,2.847991-.90408,4.116935-7.829103.011607-12.581856Z"/>
    <path class="st0" d="M123.483426,108.044615c-1.643342,2.043488-3.874406,3.015442-6.202802,2.760619-1.91612-.209703-4.154445-1.476987-5.190603-3.591873-2.422608-4.944747-1.617828-10.981577,1.802095-15.230933,1.633246-2.029357,3.899736-2.885921,6.520793-2.593585,1.915821.213679,4.11608,1.836244,5.055322,4.128814,1.92878,4.707904,1.297927,10.444898-1.984805,14.526958ZM121.766681,94.755071c-.332131-.7275-1.492726-1.594878-2.169611-1.660984-.601672-.058761-1.980163.441616-2.394722.917255-4.273131,4.902733-2.876124,12.483715.476299,12.892887,3.253479.397095,6.697237-6.433956,4.088033-12.149157Z"/>
    <path class="st0" d="M93.943501,117.816956c-.473514,2.862333-2.133927,4.763554-4.225933,5.599225-2.403736.960195-4.96964.479689-7.051283-1.256514-3.881353-3.237259-5.45014-8.753732-3.979045-13.665665.588459-1.964844,2.349795-3.576217,3.810035-4.149221,2.200034-.863302,4.442933-.358609,6.365483.926119,3.94821,2.638357,5.881513,7.705503,5.080743,12.546056ZM86.316409,108.170678c-.550691-.380458-2.292769-.39276-2.869488-.077889-2.222115,1.213206-2.266532,7.493997,1.776214,11.220368.68508.631468,2.484012.873208,3.259957.500109,2.871175-1.380554,2.577295-8.365094-2.166683-11.642588Z"/>
    <path class="st0" d="M136.311731,121.705147c-2.124683,2.030741-4.770585,2.652653-7.200715,1.719641-2.24465-.861799-4.088502-2.662022-4.608586-5.435903-.853389-4.55158.840937-9.633467,4.564902-12.408538,1.960754-1.46114,4.247036-2.030629,6.5604-1.309398,1.906713.59445,3.671265,2.439902,4.301197,4.827932,1.167179,4.4247-.193805,9.334239-3.617197,12.606267ZM136.319121,110.226426c-.206912-.909228-.996582-1.969006-1.673912-2.233241-.655927-.255885-2.231341-.107646-2.768483.271456-3.017408,2.129619-4.341583,5.622935-3.535964,9.229884.247334,1.107373,1.369497,2.260603,2.222659,2.443263,3.447571.738115,6.824368-5.015352,5.755699-9.711362Z"/>
  </g>
</svg>