<?xml version="1.0" encoding="UTF-8"?>
<svg id="Layer_1" xmlns="http://www.w3.org/2000/svg" version="1.1" viewBox="0 0 216 216">
  <!-- Generator: Adobe Illustrator 30.6.0, SVG Export Plug-In . SVG Version: 2.1.4 Build 109)  -->
  <defs>
    <style>
      .st0 {
        fill: #00747f;
      }
    </style>
  </defs>
  <path class="st0" d="M89.749826,71.65744c.849192,1.558441.33919,2.895459-.933382,3.616768-1.004628.569435-2.640452.149134-3.326288-1.11677l-9.925707-18.320705c-.636853-1.175493-.255596-2.636583.558311-3.343062.8323-.722445,2.704948-.880564,3.36754.33543l10.259526,18.82834Z"/>
  <path class="st0" d="M138.015747,159.880079c.623981,1.149532-.49669,2.511033-1.254089,2.906605-.684079.357279-2.449186.319131-2.926418-.556191l-8.821524-16.180123c-.61692-1.131532-.221012-2.417852.586596-3.101791.891011-.75457,2.764009-.848883,3.45254.419566l8.962895,16.511933Z"/>
  <path class="st0" d="M111.583289,163.804185c-.405581,1.361127-1.932644,1.961217-2.982957,1.732631-1.183046-.257473-2.286734-1.630557-1.867182-3.028812l5.005231-16.6811c.345543-1.151602,2.262153-1.629856,3.074243-1.293301,1.00281.415596,1.991282,1.750219,1.634314,2.948202l-4.863649,16.322379Z"/>
  <path class="st0" d="M104.446653,71.019076c-.431198,1.428804-2.342859,1.695943-3.16351,1.257766-1.374233-.733755-1.688962-1.928677-1.28534-3.286161l4.741187-15.945834c.430516-1.447936,1.540934-2.339245,3.089707-1.98397,1.458806.334637,2.096624,1.804279,1.617678,3.391296l-4.999722,16.566903Z"/>
  <path class="st0" d="M77.120546,81.027c1.41389.416945,2.424032,1.325783,2.418794,2.702486-.003786.99509-1.267513,2.74541-2.62227,2.341261l-17.75894-5.297819c-1.318013-.393188-1.28745-2.566361-.745683-3.302777.847222-1.151619,2.051808-1.354954,3.395977-.958569l15.312123,4.515419Z"/>
  <path class="st0" d="M144.132033,102.729031l33.889935-18.548439c5.161167-2.824779,5.937517-9.730874,3.503589-14.483267-3.222274-6.291686-10.09752-8.05424-16.070555-4.79305l-32.597661,17.797849c-2.812792,1.535743-3.959551,4.53829-3.690551,7.523357.094809,1.052088-.666302,2.169105-1.575211,2.661332l-13.057453,7.071358c-1.530381.828789-3.145949.173374-3.883723-1.506438-2.890804-6.581977-2.939878-14.125125-.499663-20.801846,2.493675-6.822995,7.200351-11.492232,13.493071-14.920711l30.593371-16.668269c16.934563-9.761006,37.078132-3.784085,46.223592,13.36917,7.913076,14.841793,4.423227,34.096566-10.774089,43.115707l-35.500748,19.477375c-5.907712,3.241248-12.306981,4.161473-18.763553,2.591131-7.034823-1.710982-13.181103-5.967732-17.155396-12.040015-.995141-1.520466-.632624-3.250384.895538-4.081674l13.032586-7.089474c1.163993-.63319,2.617279-.33699,3.522747.482889,2.416985,2.188519,5.570902,2.399178,8.414174.843015ZM146.47495,107.057983c-4.316919,2.358784-9.220695,2.081112-13.142345-.78343l-9.85688,5.336337c5.914893,7.513022,18.239275,11.428424,26.271076,7.054688l37.256265-20.28799c13.137489-7.683167,15.837796-24.352969,8.97586-36.952265-7.859489-14.430918-24.519451-19.004989-38.994938-11.141611l-30.884334,16.776997c-6.824786,3.707362-11.501079,9.43484-12.475784,17.211844-.422133,3.368128-.494843,6.732611.728401,10.268501l9.925277-5.358579c-.11428-5.087999,2.74721-9.018397,7.197529-11.402694l33.654671-18.030789c7.64434-4.095523,16.725422.223989,20.584598,7.540204,3.928785,7.448178,2.28915,17.077405-5.340332,21.246188l-33.899065,18.522602Z"/>
  <path class="st0" d="M154.1989,136.992205c.912732.274006,1.461996,1.718588,1.531658,2.470391.080137.864858-1.392602,2.593729-2.43799,2.284169l-17.235726-5.103839c-.975161-.288764-1.520962-2.012552-1.325913-2.874529.218817-.967014,1.525993-2.162445,2.713167-1.806051l16.754803,5.02986Z"/>
  <path class="st0" d="M46.815512,155.284763l34.230763-18.331537c3.071772-1.64502,4.694632-4.546689,4.152296-8.003395-.17015-1.084488.562434-2.354252,1.565057-2.898682l13.080792-7.102938c1.225262-.665324,2.94672-.072061,3.548826,1.238397,5.869123,12.773888,1.753986,28.505905-11.329817,35.513609l-36.067997,19.31807c-15.343773,7.430671-33.391043.357569-41.574289-13.808256-9.556087-16.542319-4.262974-36.96083,12.607147-46.086735l32.630935-17.65173c5.942927-3.214831,12.393141-4.322621,18.879844-2.829959,7.228945,1.66346,13.32216,5.729437,17.436153,11.953693.675799,1.022448.773402,2.93673-.464847,3.613717l-13.376255,7.313191c-.915574.500571-2.482521.448846-3.274925-.165522-2.681103-2.078719-5.826929-2.298834-8.808681-.675552l-32.96708,17.947452c-5.554231,3.023752-7.185604,9.706159-4.287019,15.231885,2.505509,4.776383,8.720191,8.262008,14.019098,5.424294ZM51.24179,158.78399c-8.541327,4.673785-18.319492,1.703466-22.728914-6.639174-4.397044-8.319221-1.399459-17.779063,6.876103-22.260714l31.996643-17.327861c4.472713-2.422209,9.350512-2.509993,13.552929.221181l9.715762-5.409684c-6.7807-7.759369-17.192617-10.53918-26.578984-6.562437l-36.278629,19.829339c-13.350845,7.781887-16.769263,24.690454-9.2732,37.840585,6.918956,12.137728,22.026536,18.517751,35.100633,12.180795l37.40376-20.058285c4.04897-2.171316,6.476966-5.953062,8.34638-9.840049,1.952988-5.267807,2.280557-10.682092.567143-16.34462l-9.649337,5.228443c-.057024,4.286788-1.658349,8.681742-5.639974,10.860473l-33.410315,18.282008Z"/>
</svg>