<?xml version="1.0" encoding="UTF-8"?>
<svg id="Layer_1" xmlns="http://www.w3.org/2000/svg" version="1.1" viewBox="0 0 216 216">
  <!-- Generator: Adobe Illustrator 30.6.0, SVG Export Plug-In . SVG Version: 2.1.4 Build 109)  -->
  <defs>
    <style>
      .st0 {
        fill: #00747f;
      }
    </style>
  </defs>
  <path class="st0" d="M104.722845,102.244491l12.646034-10.37262c7.436279-6.099438,10.674595-15.846219,9.221969-25.371011-1.432048-9.389863-8.727417-16.417483-17.890613-18.175012-14.94438-2.866378-29.711612,7.201983-29.466154,21.808441.103122,6.136452-3.975604,11.095453-10.296862,11.496484l-8.920703.034435c-6.250917.024129-10.165293-5.099471-10.348645-11.179868-.424338-14.072057,4.852343-27.489884,14.86454-37.523352,18.08196-18.120374,48.847714-21.14785,70.131673-7.022913,12.137564,8.055002,20.242663,20.944367,22.432484,35.304295,2.61898,17.17417-2.433254,33.9137-14.106895,46.63382-4.151042,4.52316-8.730119,8.265295-13.510617,12.138187l-5.940764,5.687247c-3.622927,4.200158-5.009828,9.179606-4.840029,14.668583.17667,5.711098-4.054583,10.911943-9.7775,10.930035l-9.96131.031491c-6.525109.020628-9.731287-5.450383-9.967666-11.363356-.578186-14.463184,4.686413-27.911875,15.731059-37.724886ZM110.267987,105.032578c-10.809668,8.617523-16.415603,21.248862-15.631771,34.912312.149727,2.609988,1.034611,5.684342,4.274643,5.719163l9.20577.098933c2.939313.031588,5.201179-2.420292,5.041831-5.384629-.577187-10.737369,4.540157-18.002248,12.505685-24.57517,4.229553-3.490105,8.357441-6.778718,12.129778-10.690424,11.716281-12.149138,16.65944-28.470879,13.308591-45.104904-4.059437-20.151541-20.407423-34.670479-41.005188-36.862215-14.143092-1.504917-28.233601,2.368149-39.004115,11.564983-10.640847,9.086113-16.451344,22.264991-15.761365,36.227273.142649,2.886612,2.233201,5.086683,5.175478,5.068652l8.390511-.051419c3.002577-.018401,4.791413-2.60525,4.723517-5.39985-.201659-8.300195,3.405084-15.842866,9.703624-21.193478,7.793768-6.620809,18.19686-8.748866,28.13767-6.269358,10.595036,2.64269,18.523199,10.909308,20.463634,21.655637,2.326075,12.88204-2.922945,25.348578-13.05087,33.422613l-8.607421,6.861881Z"/>
  <path class="st0" d="M118.487994,176.138132c0,8.070338-6.543491,14.61264-14.615296,14.61264s-14.615296-6.542302-14.615296-14.61264,6.543491-14.61264,14.615296-14.61264,14.615296,6.542302,14.615296,14.61264ZM112.795354,176.131034c0-4.917885-3.987458-8.904619-8.906237-8.904619s-8.906237,3.986734-8.906237,8.904619,3.987458,8.904619,8.906237,8.904619,8.906237-3.986734,8.906237-8.904619Z"/>
</svg>