<?xml version="1.0" encoding="UTF-8"?>
<svg id="Layer_1" xmlns="http://www.w3.org/2000/svg" version="1.1" viewBox="0 0 216 216">
  <!-- Generator: Adobe Illustrator 30.6.0, SVG Export Plug-In . SVG Version: 2.1.4 Build 109)  -->
  <defs>
    <style>
      .st0 {
        fill: #fff;
      }

      .st1 {
        fill: #00747f;
      }
    </style>
  </defs>
  <g>
    <path class="st1" d="M107.999897,211.027577c-57.350586,0-104.008789-46.658203-104.008789-104.008789S50.649311,3.009998,107.999897,3.009998s104.008789,46.658203,104.008789,104.008789-46.658203,104.008789-104.008789,104.008789Z"/>
    <path class="st0" d="M107.999988,4.009861c56.890106,0,103.008698,46.118546,103.008698,103.008652s-46.118591,103.008667-103.008698,103.008667S4.991352,163.90865,4.991352,107.018513,51.109882,4.009861,107.999988,4.009861M107.999988,2.009861C50.098041,2.009861,2.991352,49.116535,2.991352,107.018513s47.106689,105.008667,105.008636,105.008667,105.008698-47.106689,105.008698-105.008667S165.901996,2.009861,107.999988,2.009861h0Z"/>
  </g>
  <g>
    <path class="st0" d="M82.088576,143.125986l-8.962401-.629358-.19997,6.244452c-.091081,2.84418-2.68024,4.825825-5.375219,4.810374l-12.49244-.071621c-3.218954-.018455-4.926695-3.185566-4.997554-6.029074l-.161234-6.470226-.3426-11.130924-.369829-16.77187c-.110119-4.993919,1.070721-9.270355,4.912428-12.805188l4.072945-3.7476-7.68308-.374189c-2.972312-.14476-4.962464-2.497347-4.914369-5.391287.062306-3.749016,2.422686-6.932542,6.137111-7.530469l5.981104-.011261c3.033607.07735,5.000373,2.19701,5.364319,5.488898l8.96215-20.65943c2.279281-5.254169,8.114892-7.152202,13.635882-7.286487,14.368461-.349478,28.235573-.415987,42.643078.095352,4.898488.173853,10.198482,2.5081,12.188493,7.06838l8.958824,20.529907c.537041-2.817694,2.167162-5.092027,5.002326-5.152786l5.94196-.127339c3.721559.330656,6.166354,3.063529,6.639387,6.678601.421679,3.222607-1.667889,6.140022-5.091329,6.295185l-7.724631.350109,4.194444,3.771203c3.326912,2.991209,5.026966,6.694336,4.901005,11.285064l-1.013054,36.92143c-.082132,2.993367-2.899147,5.075437-5.61544,5.067062l-12.154581-.037474c-2.467743-.007608-4.915264-2.126267-4.955797-4.491427l-.109904-6.413144-9.651615.591986-27.546481.399817c-6.774417.098326-13.257133.019046-20.173931-.466666ZM132.801338,94.801812l14.95981-.916671-9.976427-23.240388c-1.341504-3.125074-4.569541-5.827257-8.313589-5.99016-15.572501-.677558-30.918065-.666183-46.499133.009374-3.054624.132441-6.603103,2.374723-7.747251,5.043388l-10.384214,24.220652,14.471594.852511,53.489208.021293ZM59.401456,88.229773c-.027062-.768643-1.638376-1.464046-2.374877-1.420315l-5.639397.334846c-2.169522.128818-2.755395,3.879169-1.449355,5.274656l9.632835.616703-.169206-4.805891ZM162.946187,92.430134c.544822-1.182908.439298-2.759649.092065-3.613559-.32097-.789325-1.628244-1.901898-2.553041-1.907099l-5.875483-.033043c-.656092-.00369-1.644529,1.347002-1.628779,2.044248l.092547,4.096931,9.87269-.587477ZM53.495821,138.693284l17.416501.32852,12.504269.572993c16.278369.330992,32.243475.153945,48.490807-.260225l27.096831-.690742.735625-26.347575c.076052-2.723912-.401573-5.075247-1.878112-7.31654l-8.228058-7.67137-18.566523,1.132171-49.014941.010378-19.349048-1.067648-6.069128,5.510489c-2.143184,1.945913-3.57719,4.153152-3.880365,7.133332l.277764,13.941989.464377,14.72423ZM67.78272,149.824377c.999727-.001409,1.722089-1.204403,1.718919-1.970022l-.021906-5.289422-15.932098-.33761.058136,5.941829c.006902.705404,1.03756,1.673739,1.739075,1.672751l12.437874-.017525ZM157.265302,149.827879c.637485-.000078,1.640474-1.165277,1.628115-1.707301l-.13409-5.88062-15.74025.335267-.015133,5.604534c-.001517.561731.931241,1.649755,1.483045,1.649687l12.778314-.001567Z"/>
    <path class="st0" d="M128.020988,128.42696c-.96178,2.324348-2.8691,4.123546-5.497181,4.113896l-33.272026-.122166c-3.411254-.012525-5.463682-4.35-5.576135-7.223944-.153217-3.915758,2.599572-7.209325,6.521862-7.213872l32.05422-.037156c1.862088-.002158,3.825865.900343,4.890227,2.220391,1.959363,2.430052,2.088432,5.340076.879032,8.262851ZM123.044566,128.856339c1.450064-.631971,2.074993-2.458828,2.178269-3.616104.103336-1.157946-.573628-3.008601-1.943068-3.531805l-34.378188-.027029c-1.274854,1.111977-1.827628,2.553701-1.665987,3.86662.125016,1.01543.943354,3.05941,2.201095,3.303241l33.607878.005077Z"/>
    <path class="st0" d="M147.775546,122.959235l-10.256991.110655c-2.186722.023591-3.823139-1.712407-4.223758-3.590764-.348446-1.633732.353091-4.515872,2.384353-5.250653l13.77422-4.982636c1.267847-.458626,3.135153.041663,4.216752.791623,2.825831,1.959377,1.763046,6.69631-.395985,10.148476-1.21791,1.947369-3.113951,2.747572-5.498591,2.773298ZM148.901702,119.144816c1.560435-.04963,4.155577-5.386956,2.045787-6.679322l-13.456636,4.767378c-.390947.138504-1.006669,1.224024-.751103,1.545415.213156.268058,1.023186.720799,1.405272.708646l10.756681-.342118Z"/>
    <path class="st0" d="M74.761067,123.098648l-9.127414-.13223c-2.300235-.033324-4.67574-.28001-6.116158-2.358808-2.190064-3.16068-3.558427-8.162805-.690935-10.494648,1.134011-.922177,3.017342-1.362584,4.475267-.843422l13.102149,4.665622c2.122134.755683,3.112496,3.294343,2.804457,5.252112-.309757,1.96868-1.95567,3.947473-4.447365,3.911375ZM75.53347,119.445943c.50983-1.152123-.012018-2.101714-1.042845-2.467641l-12.184756-4.32539c-.386358-.137151-1.296255.057243-1.438862.340587-.106908.212414-.257517.990726-.170534,1.23472l1.282109,3.596425c.33997.953644,1.894121,1.603532,2.826777,1.604953l10.728111.016346Z"/>
  </g>
</svg>