<?xml version="1.0" encoding="UTF-8"?>
<svg id="Layer_1" xmlns="http://www.w3.org/2000/svg" version="1.1" viewBox="0 0 216 216">
  <!-- Generator: Adobe Illustrator 30.6.0, SVG Export Plug-In . SVG Version: 2.1.4 Build 109)  -->
  <defs>
    <style>
      .st0 {
        fill: #fff;
      }

      .st1 {
        fill: #00747f;
      }
    </style>
  </defs>
  <g>
    <path class="st1" d="M108.729492,212.046387c-57.350586,0-104.008789-46.658203-104.008789-104.008789S51.378906,4.028809,108.729492,4.028809s104.008789,46.658203,104.008789,104.008789-46.658203,104.008789-104.008789,104.008789Z"/>
    <path class="st0" d="M108.729431,5.02901c56.890137,0,103.008667,46.118531,103.008667,103.008657s-46.11853,103.008659-103.008667,103.008659S5.720795,164.927795,5.720795,108.037666,51.839325,5.02901,108.729431,5.02901M108.729431,3.02901C50.827484,3.02901,3.720795,50.135696,3.720795,108.037666s47.106689,105.008659,105.008636,105.008659,105.008667-47.106689,105.008667-105.008659S166.631409,3.02901,108.729431,3.02901h0Z"/>
  </g>
  <g>
    <path class="st0" d="M78.207928,157.214376l-5.710793,5.868036c-4.200584,4.316244-11.335186,3.498566-15.605944-.434987-3.984373-3.66978-5.833642-11.086599-1.528688-15.491735l24.650314-25.22396c1.444717-1.478337,3.835248-2.005531,5.352769-.528522l4.726076,4.599905,7.008361-6.908998c-12.2166-13.873671-13.54358-33.84224-2.958919-49.232581,8.627841-12.54508,23.625273-19.389814,38.741474-16.918734,12.793448,2.091374,23.373,10.637589,28.728454,21.139988,6.503129,12.753065,5.837971,27.071263-.929947,38.673957-5.96389,10.224296-16.049225,17.03757-26.527342,18.981476-12.811488,2.376794-24.685432-1.177228-34.048295-9.572566l-6.828867,6.723037,3.770991,3.89357c1.63496,1.688106,1.470698,3.922213-.169355,5.57838l-18.670288,18.853735ZM162.073891,92.52532c0-19.593006-15.881021-35.476275-35.471253-35.476275s-35.471253,15.883269-35.471253,35.476275,15.881021,35.476275,35.471253,35.476275,35.471253-15.883269,35.471253-35.476275ZM69.574923,159.9389l14.622688-14.719972,9.539832-9.781549-10.59233-10.625897-16.105636,16.245107-8.317848,8.678076c-2.645924,2.760514-1.489059,7.346323.993289,9.73754,2.401101,2.312954,7.086197,3.258957,9.860005.466695Z"/>
    <path class="st0" d="M150.463002,81.768186c-4.831322-10.634945-15.368219-16.882065-26.953633-15.484305-9.663783,1.165918-17.502991,7.708271-21.197823,16.549262-.293996.578881-2.107432.498851-2.567111.047265-.458187-.450121-.804853-1.753781-.458507-2.56804,6.179508-14.528007,22.664188-21.8928,37.559047-16.415082,7.801731,2.869157,13.723772,8.820801,17.126983,16.352957.316305.700063-.291444,2.086623-.823527,2.3919-.656425.376617-2.216486.158303-2.68543-.873958Z"/>
  </g>
</svg>