<?xml version="1.0" encoding="UTF-8"?>
<svg id="Layer_1" xmlns="http://www.w3.org/2000/svg" version="1.1" viewBox="0 0 216 216">
  <!-- Generator: Adobe Illustrator 30.6.0, SVG Export Plug-In . SVG Version: 2.1.4 Build 109)  -->
  <defs>
    <style>
      .st0 {
        fill: #fff;
      }

      .st1 {
        fill: #00747f;
      }
    </style>
  </defs>
  <g>
    <path class="st1" d="M107.999897,212.008229c-57.350586,0-104.008789-46.657227-104.008789-104.007812S50.649311,3.991628,107.999897,3.991628s104.008789,46.658203,104.008789,104.008789-46.658203,104.007812-104.008789,104.007812Z"/>
    <path class="st0" d="M107.999988,4.991353c56.890106,0,103.008698,46.118561,103.008698,103.008636s-46.118591,103.008667-103.008698,103.008667S4.991352,164.890126,4.991352,107.99999,51.109882,4.991353,107.999988,4.991353M107.999988,2.991353C50.098041,2.991353,2.991352,50.098073,2.991352,107.99999s47.106689,105.008667,105.008636,105.008667,105.008698-47.106689,105.008698-105.008667S165.901996,2.991353,107.999988,2.991353h0Z"/>
  </g>
  <g>
    <path class="st0" d="M77.457154,158.877954c-7.806638,4.450328-17.422034,1.754425-24.289721-3.190195-11.828751-8.516503-15.94543-24.281253-10.354054-37.526871,2.35168-5.570983,6.137007-9.109598,11.251668-11.994522l43.044092-24.279013c14.959624-7.809273,29.436061-15.618036,44.832716-22.519776,6.276657-2.813589,13.84675-1.559678,19.674996,1.749949,10.947958,6.216905,17.592761,18.229005,16.338023,30.764362-.802475,8.01706-5.01776,15.719343-12.351955,19.348195-21.46728,10.621694-42.315713,21.521544-63.120528,33.38174l-25.025236,14.26613ZM76.041869,154.937495l36.094217-20.647314c15.850663-9.067203,31.842212-17.241988,48.364445-24.995941,7.925103-3.719284,13.294006-10.2826,13.437136-19.590593.153662-9.992946-5.351183-19.926843-14.342082-24.760601-4.81714-2.589829-11.137932-4.049183-16.327279-1.60005-26.182821,12.357083-51.527586,25.668955-76.39455,40.420847l-14.537945,8.624382c-4.557875,3.160957-6.684073,8.843648-7.443176,14.269091-1.419638,10.146398,3.012441,20.463136,11.557969,26.150539,5.61554,3.737375,13.351329,5.69913,19.591266,2.12964Z"/>
    <path class="st0" d="M103.740016,134.983411c-6.088043,3.305086-13.255337-1.211831-16.047169-6.749392l-7.769321-15.41034c-2.72582-5.406626.197249-12.729106,5.475964-15.610185l23.44833-12.797898c6.019588-3.28544,14.166347-2.336199,17.545926,4.15981l8.326572,16.004796c2.78665,5.356318,1.057274,13.010601-4.493587,16.024061l-26.486715,14.379148ZM101.775992,131.333107l24.819361-13.37812c4.615443-2.487814,6.670884-7.256008,4.178705-12.087781l-7.937002-15.388053c-2.83994-3.857367-7.296054-4.765916-11.424797-2.514051l-24.738302,13.492562c-4.139887,2.257943-4.178819,7.906074-2.249788,11.557018l7.889521,14.931958c1.594571,3.017936,6.282966,5.100191,9.462302,3.386467Z"/>
    <circle class="st0" cx="142.639214" cy="90.730593" r="2.436897"/>
    <circle class="st0" cx="80.191443" cy="138.600321" r="2.419931"/>
    <circle class="st0" cx="149.574929" cy="73.956655" r="2.440214"/>
    <circle class="st0" cx="147.522823" cy="101.954683" r="2.409163"/>
    <circle class="st0" cx="154.025899" cy="85.068084" r="2.410442"/>
    <circle class="st0" cx="136.36803" cy="80.131081" r="2.427565"/>
    <circle class="st0" cx="160.220163" cy="95.474524" r="2.398594"/>
    <circle class="st0" cx="56.558068" cy="123.904025" r="2.371908"/>
    <circle class="st0" cx="68.019808" cy="145.361474" r="2.388304"/>
    <circle class="st0" cx="63.114852" cy="134.297584" r="2.36353"/>
    <circle class="st0" cx="68.965194" cy="116.858643" r="2.382682"/>
    <circle class="st0" cx="73.786128" cy="128.23261" r="2.367957"/>
    <path class="st0" d="M114.477213,121.46071c-7.723031.026041-17.263976-1.384301-21.299511-7.490016-2.141964-3.240765-1.907173-7.174293.227393-10.272939,2.080614-3.020325,5.76441-4.547444,9.441006-3.538078,1.14864-3.51,4.037259-5.716116,7.006536-6.228157,3.395431-.585529,6.719238.955211,8.733773,3.755401,4.790493,6.658756.125613,16.103946-4.109198,23.773788ZM99.181052,114.349417c4.0255,2.256193,8.520746,2.745723,12.963617,3.182741,3.131508-6.373449,7.051698-13.506775,2.406974-18.393038-1.714012-1.242122-3.810077-1.638597-5.556725-.822389-3.335065,1.558475-2.014682,5.223742-3.634026,6.390169-.391711.282153-1.560516.214451-2.027812-.088673-2.30315-1.494-5.295353-1.064592-6.845209,1.534341-1.654321,2.77411-.51103,6.400967,2.693182,8.196849Z"/>
  </g>
</svg>