<?xml version="1.0" encoding="UTF-8"?>
<svg id="Layer_1" xmlns="http://www.w3.org/2000/svg" version="1.1" viewBox="0 0 216 216">
  <!-- Generator: Adobe Illustrator 30.6.0, SVG Export Plug-In . SVG Version: 2.1.4 Build 109)  -->
  <defs>
    <style>
      .st0 {
        fill: #00747f;
      }
    </style>
  </defs>
  <path class="st0" d="M57.712397,176.552827l-8.136874,8.360918c-5.985092,6.149888-16.150643,4.984841-22.235722-.61978-5.67703-5.22879-8.311913-15.796451-2.178111-22.072994l35.122356-35.939701c2.058467-2.106371,5.464553-2.857528,7.626754-.753051l6.733825,6.554054,9.985681-9.844105c-17.406503-19.767537-19.297216-48.219231-4.215939-70.147756,12.293154-17.87453,33.661853-27.627069,55.199778-24.106216,18.22841,2.97984,33.302408,15.156691,40.932987,30.120759,9.265814,18.170872,8.318081,38.571782-1.325011,55.103577-8.497494,14.567821-22.867319,24.275537-37.796791,27.04526-18.254114,3.386513-35.172394-1.677343-48.512824-13.639221l-9.729933,9.579144,5.372998,5.547651c2.32953,2.405253,2.095486,5.588462-.241302,7.94821l-26.601872,26.863251ZM177.206624,84.382314c0-27.916582-22.627658-50.547443-50.540288-50.547443s-50.540288,22.630861-50.540288,50.547443,22.627658,50.547443,50.540288,50.547443,50.540288-22.630861,50.540288-50.547443ZM45.411885,180.434794l20.834754-20.973368,13.59258-13.936984-15.092204-15.140032-22.947695,23.146416-11.851468,12.36473c-3.769976,3.933246-2.121646,10.467216,1.415261,13.87428,3.421146,3.295552,10.096582,4.64344,14.048771.664958Z"/>
  <path class="st0" d="M160.663151,69.055293c-6.883784-15.152923-21.897005-24.053969-38.404179-22.062408-13.769189,1.661228-24.938679,10.982928-30.203164,23.579783-.418892.824803-3.00272.710775-3.657681.067345-.652836-.641343-1.146774-2.498829-.653292-3.659005,8.804711-20.699851,32.292476-31.193384,53.515027-23.3886,11.116093,4.088043,19.553958,12.568088,24.402934,23.300084.450679.997466-.415256,2.973071-1.17338,3.408037-.93529.536613-3.158103.225554-3.826265-1.245236Z"/>
</svg>