<?xml version="1.0" encoding="UTF-8"?>
<svg id="Layer_1" xmlns="http://www.w3.org/2000/svg" version="1.1" viewBox="0 0 216 216">
  <!-- Generator: Adobe Illustrator 30.6.0, SVG Export Plug-In . SVG Version: 2.1.4 Build 109)  -->
  <defs>
    <style>
      .st0 {
        fill: #00747f;
      }
    </style>
  </defs>
  <path class="st0" d="M62.358849,182.185357c-11.123085,6.340934-24.82333,2.499747-34.608574-4.545466-16.853887-12.134517-22.719429-34.596508-14.752704-53.469181,3.35073-7.937669,8.744154-12.979573,16.031645-17.090081l61.33025-34.593317c21.314829-11.126839,41.941202-22.252951,63.878724-32.086715,8.943131-4.008868,19.72918-2.222266,28.033404,2.493369,15.598912,8.857995,25.066587,25.973122,23.278805,43.833798-1.143386,11.422899-7.149424,22.397295-17.59936,27.56777-30.587093,15.134043-60.292438,30.66441-89.935636,47.563101l-35.656554,20.326723ZM60.342317,176.570896l51.427903-29.418785c22.584403-12.919168,45.369544-24.566797,68.910815-35.614814,11.291876-5.299324,18.941617-14.650894,19.145552-27.913145.218942-14.238188-7.624493-28.392242-20.434941-35.279496-6.863576-3.69005-15.869592-5.769372-23.263497-2.27979-37.305909,17.606667-73.417735,36.57374-108.848779,57.592588l-20.714011,12.288225c-6.494169,4.503807-9.523627,12.600641-10.605215,20.330941-2.022734,14.45683,4.292198,29.156365,16.46807,37.259913,8.001155,5.325101,19.023293,8.120256,27.914103,3.034362Z"/>
  <path class="st0" d="M99.807298,148.139842c-8.67439,4.709166-18.88652-1.726646-22.86439-9.616695l-11.069914-21.95702c-3.883814-7.70349.281044-18.136735,7.802285-22.241764l33.40974-18.234751c8.576853-4.681173,20.184549-3.328672,24.999855,5.926997l11.863898,22.804016c3.970485,7.631809,1.50643,18.537815-6.40257,22.831465l-37.738903,20.487753ZM97.00891,142.938801l35.363219-19.061465c6.576193-3.544696,9.504835-10.338534,5.953918-17.222959l-11.30883-21.925266c-4.046414-5.496068-10.395592-6.790591-16.278324-3.582079l-35.247724,19.224525c-5.89861,3.217172-5.954081,11.264763-3.205552,16.466715l11.241178,21.275411c2.271983,4.300028,8.952121,7.266874,13.482114,4.825119Z"/>
  <circle class="st0" cx="155.231804" cy="85.087369" r="3.472149"/>
  <circle class="st0" cx="66.254729" cy="153.293301" r="3.447975"/>
  <circle class="st0" cx="165.113977" cy="61.187462" r="3.476875"/>
  <circle class="st0" cx="162.190087" cy="101.079722" r="3.432634"/>
  <circle class="st0" cx="171.455825" cy="77.019292" r="3.434455"/>
  <circle class="st0" cx="146.296471" cy="69.984933" r="3.458853"/>
  <circle class="st0" cx="180.28156" cy="91.846636" r="3.417574"/>
  <circle class="st0" cx="32.581332" cy="132.353668" r="3.379552"/>
  <circle class="st0" cx="48.912293" cy="162.926754" r="3.402912"/>
  <circle class="st0" cx="41.923594" cy="147.162659" r="3.367615"/>
  <circle class="st0" cx="50.259301" cy="122.31524" r="3.394902"/>
  <circle class="st0" cx="57.128283" cy="138.521139" r="3.373921"/>
  <path class="st0" d="M115.105913,128.872374c-11.003959.037104-24.598125-1.972385-30.348051-10.671953-3.051922-4.61752-2.717386-10.222103.323995-14.637129,2.964508-4.303432,8.213269-6.479307,13.451771-5.041138,1.63661-5.001132,5.752384-8.144459,9.98308-8.874027,4.837891-.834276,9.57373,1.361007,12.444088,5.350786,6.825609,9.487554.178976,22.945287-5.854883,33.873461ZM93.311577,118.740035c5.735629,3.214678,12.140562,3.912172,18.470871,4.534845,4.461848-9.081042,10.047428-19.244776,3.429514-26.20684-2.442166-1.769806-5.428689-2.334712-7.917355-1.171759-4.75188,2.220553-2.870567,7.442913-5.177847,9.104866-.558119.402018-2.223461.305555-2.889276-.126344-3.281583-2.128687-7.544946-1.516856-9.753217,2.186166-2.357116,3.952618-.728128,9.12025,3.83731,11.679066Z"/>
</svg>