<?xml version="1.0" encoding="UTF-8"?>
<svg id="Layer_1" xmlns="http://www.w3.org/2000/svg" version="1.1" viewBox="0 0 216 216">
  <!-- Generator: Adobe Illustrator 30.6.0, SVG Export Plug-In . SVG Version: 2.1.4 Build 109)  -->
  <defs>
    <style>
      .st0 {
        fill: #fff;
      }

      .st1 {
        fill: #00747f;
      }
    </style>
  </defs>
  <g>
    <path class="st1" d="M107.707856,212.008818c-57.350586,0-104.008789-46.658203-104.008789-104.008789S50.35727,3.99124,107.707856,3.99124s104.008301,46.658203,104.008301,104.008789-46.657715,104.008789-104.008301,104.008789Z"/>
    <path class="st0" d="M107.707726,4.991331c56.890129,0,103.008659,46.118561,103.008659,103.008698s-46.11853,103.008606-103.008659,103.008606S4.69907,164.890104,4.69907,108.000029,50.817601,4.991331,107.707726,4.991331M107.707726,2.991331C49.805756,2.991331,2.69907,50.098051,2.69907,108.000029s47.106686,105.008606,105.008656,105.008606,105.008659-47.106689,105.008659-105.008606S165.609696,2.991331,107.707726,2.991331h0Z"/>
  </g>
  <g>
    <path class="st0" d="M95.50954,81.304916c.595998,1.093778.238058,2.032152-.655086,2.538396-.705089.399653-1.853178.104669-2.334526-.783795l-6.966269-12.858224c-.44697-.825009-.179388-1.850463.391845-2.346299.584143-.507041,1.898443-.618016,2.363478.235419l7.200557,13.214503Z"/>
    <path class="st0" d="M129.384548,143.223192c.437936.806789-.348597,1.762346-.880171,2.039975-.480115.250753-1.71894.223979-2.05388-.390357l-6.191308-11.355876c-.43298-.794156-.155115-1.696948.411697-2.176964.625348-.529588,1.939895-.595781,2.423134.294468l6.290528,11.588754Z"/>
    <path class="st0" d="M110.833162,145.977292c-.284653.955295-1.356409,1.376463-2.093562,1.216032-.83031-.180705-1.604924-1.144392-1.310465-2.125745l3.512877-11.707482c.242516-.808241,1.587672-1.1439,2.15763-.907692.703813.291682,1.397564,1.228375,1.147029,2.069169l-3.413509,11.455717Z"/>
    <path class="st0" d="M105.824377,80.856886c-.302633,1.002793-1.644315,1.190282-2.220282.882752-.964493-.51498-1.185383-1.353625-.902105-2.306363l3.32756-11.191442c.302154-1.016221,1.081491-1.641778,2.168484-1.392431,1.02385.234862,1.471497,1.266317,1.135353,2.380151l-3.509011,11.627334Z"/>
    <path class="st0" d="M86.645791,87.880858c.992326.292629,1.701285.930489,1.697609,1.896716-.002657.698395-.889593,1.926841-1.840417,1.643193l-12.463955-3.718227c-.925036-.275955-.903585-1.801177-.523351-2.318025.594615-.808254,1.440043-.950962,2.383436-.672763l10.746678,3.169107Z"/>
    <path class="st0" d="M133.677209,103.112236l23.785351-13.018057c3.622319-1.982546,4.167194-6.829527,2.458963-10.164952-2.261524-4.415764-7.086855-5.652797-11.278976-3.363959l-22.878379,12.491262c-1.974133,1.077848-2.778976,3.185159-2.590181,5.280201.066541.738398-.467638,1.522367-1.105548,1.867832l-9.164258,4.96297c-1.074085.581678-2.207957.121681-2.725756-1.05728-2.028885-4.619502-2.063327-9.913594-.350684-14.599591,1.750163-4.788658,5.053503-8.065721,9.469992-10.471969l21.471686-11.698476c11.885373-6.850675,26.022958-2.655827,32.441618,9.383034,5.553722,10.416581,3.104403,23.930372-7.561699,30.260377l-24.915885,13.670023c-4.146275,2.274841-8.637546,2.920693-13.169033,1.818562-4.937328-1.200837-9.25104-4.1884-12.040362-8.450178-.698431-1.067125-.444001-2.281253.628525-2.864687l9.146805-4.975685c.816938-.444399,1.836914-.236514,2.472409.338911,1.696339,1.535993,3.909888,1.683842,5.905414.591663ZM135.321565,106.150473c-3.029791,1.655492-6.471463,1.46061-9.223838-.549843l-6.917964,3.745261c4.151316,5.272948,12.801074,8.020938,18.438122,4.95127l26.147979-14.238946c9.22043-5.392363,11.115617-17.091915,6.299628-25.93462-5.516113-10.128211-17.20876-13.338483-27.368251-7.819641l-21.675896,11.774786c-4.789916,2.601979-8.07193,6.621759-8.756018,12.07998-.296271,2.363891-.347301,4.725223.511222,7.206856l6.965968-3.760871c-.080206-3.570967,1.928105-6.329482,5.051522-8.00288l23.620232-12.654749c5.365113-2.874407,11.738589.157205,14.447118,5.292025,2.757383,5.227438,1.60662,11.985625-3.748065,14.911448l-23.791758,12.999924Z"/>
    <path class="st0" d="M140.742551,127.159541c.640593.192309,1.026089,1.206176,1.074981,1.733822.056244.606993-.977385,1.820386-1.711081,1.603124l-12.096741-3.582084c-.684408-.202667-1.067474-1.412492-.93058-2.017463.153575-.67869,1.071005-1.517693,1.904212-1.267561l11.75921,3.530162Z"/>
    <path class="st0" d="M65.376472,139.998011l24.024557-12.865826c2.155896-1.154543,3.294886-3.191053,2.914252-5.617112-.119418-.761138.394739-1.652311,1.098422-2.034414l9.180638-4.985134c.859939-.466951,2.068129-.050575,2.490712.869158,4.119192,8.96524,1.23102,20.006617-7.951732,24.924911l-25.314004,13.558216c-10.768891,5.21515-23.435208.250957-29.178546-9.691202-6.706855-11.61008-2.991931-25.94063,8.848214-32.345566l22.901732-12.38871c4.17099-2.256301,8.698016-3.033793,13.250651-1.986182,5.073571,1.167485,9.35004,4.021155,12.23741,8.389593.474303.717596.542805,2.061118-.326249,2.536255l-9.388006,5.132698c-.642588.351321-1.742336.315019-2.298477-.11617-1.881709-1.45893-4.089578-1.613416-6.182295-.47413l-23.137653,12.59626c-3.898187,2.122194-5.043153,6.812182-3.008807,10.690363,1.758469,3.352262,6.120189,5.798617,9.83918,3.806993ZM68.483016,142.453912c-5.994655,3.280254-12.857373,1.195563-15.952086-4.659645-3.086026-5.838771-.982198-12.478078,4.825932-15.623485l22.45656-12.161405c3.139134-1.700006,6.562574-1.761616,9.512003.155234l6.818921-3.796739c-4.758974-5.445844-12.066485-7.39683-18.654224-4.605788l-25.461834,13.917046c-9.370172,5.461648-11.769359,17.328776-6.508313,26.558079,4.856008,8.518756,15.459129,12.996519,24.635068,8.548983l26.251497-14.07773c2.841733-1.523919,4.545801-4.178104,5.857833-6.906151,1.370687-3.697164,1.600589-7.497132.398044-11.471326l-6.772302,3.669536c-.040022,3.008644-1.163898,6.093203-3.958366,7.622326l-23.448733,12.831065Z"/>
  </g>
</svg>