<?xml version="1.0" encoding="UTF-8"?>
<svg id="Layer_1" xmlns="http://www.w3.org/2000/svg" version="1.1" viewBox="0 0 216 216">
  <!-- Generator: Adobe Illustrator 30.6.0, SVG Export Plug-In . SVG Version: 2.1.4 Build 109)  -->
  <defs>
    <style>
      .st0 {
        fill: #00747f;
      }
    </style>
  </defs>
  <path class="st0" d="M73.461585,156.479351l-12.769843-.896724-.284922,8.897244c-.129774,4.052456-3.81887,6.87595-7.658741,6.853936l-17.799527-.102048c-4.586443-.026295-7.019673-4.53887-7.120634-8.590369l-.22973-9.218933-.488144-15.859607-.526941-23.896961c-.1569-7.115455,1.525589-13.208623,6.999345-18.245137l5.80323-5.33967-10.947036-.533153c-4.235021-.206258-7.070638-3.55828-7.00211-7.681634.088775-5.341687,3.451901-9.877652,8.744303-10.729592l8.52202-.016045c4.322355.11021,7.124651,3.130353,7.64321,7.820713l12.769485-29.436049c3.247575-7.486266,11.562292-10.190629,19.42873-10.381961,20.472526-.497945,40.230719-.592709,60.758875.135859,6.979483.24771,14.53104,3.573601,17.366455,10.071196l12.764746,29.251502c.765188-4.014718,3.087824-7.255242,7.127434-7.341812l8.466247-.181436c5.302566.471127,8.785969,4.36499,9.459957,9.51583.600818,4.591648-2.376448,8.74845-7.254247,8.96953l-11.006239.498844,5.976344,5.3733c4.740264,4.261947,7.162542,9.538249,6.98307,16.079229l-1.443423,52.606534c-.117024,4.265021-4.130773,7.231603-8.001013,7.219671l-17.318138-.053395c-3.5161-.010841-7.003386-3.029556-7.061137-6.399493l-.156593-9.1376-13.751851.843476-39.248885.569669c-9.652351.140097-18.889079.027137-28.744299-.664916ZM145.718338,87.625915l21.315095-1.306094-14.214651-33.113459c-1.911407-4.45268-6.510791-8.302814-11.8454-8.534923-22.188071-.965401-44.052797-.949193-66.253075.013356-4.352301.188705-9.408259,3.383562-11.038468,7.18594l-14.795676,34.510164,20.619473,1.214678,76.212701.030338ZM41.136434,78.261917c-.038559-1.09518-2.334398-2.086007-3.383782-2.023699l-8.035147.477097c-3.091186.183543-3.925952,5.527132-2.065075,7.515457l13.725093.878694-.241089-6.847548ZM188.66944,84.246692c.776276-1.685435.625922-3.932013.131177-5.148686-.457325-1.124649-2.319962-2.70987-3.637634-2.71728l-8.371528-.047081c-.934816-.005257-2.343165,1.91924-2.320723,2.912693l.131863,5.837405,14.066845-.837051ZM32.721945,150.163532l24.815447.468083,17.816381.816415c23.193809.471605,45.941273.219345,69.090859-.370776l38.608212-.984186,1.048137-37.540654c.10836-3.881095-.572171-7.231333-2.675979-10.424781l-11.723534-10.930351-26.454025,1.613144-69.837658.014786-27.568985-1.521211-8.647438,7.851476c-3.05366,2.772583-5.096866,5.917511-5.528837,10.163741l.395765,19.864879.661655,20.979435ZM53.07826,166.02338c1.424435-.002007,2.453674-1.716062,2.449156-2.806935l-.031212-7.536495-22.700434-.481035.082834,8.46606c.009834,1.005077,1.47834,2.384784,2.477876,2.383375l17.72178-.02497ZM180.575179,166.028369c.908304-.000111,2.337387-1.660314,2.319777-2.432603l-.191055-8.378847-22.427084.477696-.021562,7.985474c-.002161.800368,1.326855,2.35061,2.113077,2.350513l18.206846-.002233Z"/>
  <path class="st0" d="M138.907182,135.535828c-1.370367,3.311786-4.087963,5.875326-7.832514,5.861577l-47.406776-.174065c-4.860435-.017846-7.784785-6.197985-7.94501-10.292848-.218307-5.579266,3.703932-10.272019,9.292505-10.278497l45.671618-.052941c2.653147-.003075,5.451184,1.28283,6.967712,3.163666,2.791748,3.462396,2.975648,7.608668,1.252466,11.773107ZM131.816657,136.147619c2.066086-.900447,2.956499-3.503397,3.10365-5.152311.147236-1.649869-.817318-4.286727-2.76853-5.032201l-48.982863-.038512c-1.816442,1.584372-2.604048,3.638574-2.373738,5.509252.178125,1.446809,1.344113,4.359121,3.136173,4.706536l47.885307.007235Z"/>
  <path class="st0" d="M167.053948,127.745283l-14.614406.157664c-3.115693.033613-5.447299-2.439879-6.018112-5.116206-.496474-2.32778.503092-6.434322,3.397283-7.481256l19.625838-7.099378c1.806459-.653462,4.467041.059362,6.008129,1.127923,4.026311,2.791767,2.51203,9.541062-.564208,14.459791-1.735307,2.774657-4.436832,3.914807-7.834524,3.951462ZM168.658522,122.310408c2.223345-.070714,5.920966-7.675464,2.914886-9.516857l-19.173337,6.792674c-.55703.197343-1.434326,1.744019-1.07019,2.201945.303709.381935,1.45786,1.027011,2.002265,1.009696l15.326375-.487457Z"/>
  <path class="st0" d="M63.021174,127.943922l-13.004958-.188405c-3.27743-.047481-6.662106-.398966-8.714448-3.360886-3.120455-4.503413-5.070132-11.63056-.984461-14.953025,1.615765-1.31394,4.299181-1.941442,6.376467-1.201729l18.668255,6.64769c3.023667,1.076716,4.434759,4.693859,3.995857,7.483335-.441349,2.805022-2.786485,5.624453-6.336711,5.573021ZM64.121714,122.739461c.726418-1.641572-.017124-2.994573-1.485871-3.515954l-17.361132-6.162919c-.550492-.195416-1.846935.081561-2.050125.485276-.152325.302653-.366916,1.41161-.242981,1.759258l1.82678,5.124272c.484397,1.358775,2.698789,2.28475,4.02766,2.286775l15.285669.023291Z"/>
</svg>