<?xml version="1.0" encoding="UTF-8"?>
<svg id="Layer_1" xmlns="http://www.w3.org/2000/svg" version="1.1" viewBox="0 0 484.304348 576">
  <!-- Generator: Adobe Illustrator 30.6.0, SVG Export Plug-In . SVG Version: 2.1.4 Build 109)  -->
  <defs>
    <style>
      .st0 {
        fill: #fff;
      }

      .st1 {
        fill: none;
      }
    </style>
  </defs>
  <path class="st1" d="M244.471847,43.459968c-56.318002,46.274098-126.435108,73.528539-198.030569,84.007767-1.893073,45.821045-2.910026,90.95768,2.104074,136.971074,5.426225,47.383104,15.622259,90.282115,39.303614,131.987848,12.55058,22.103096,27.140183,42.796939,44.725647,61.013202l6.913142,7.161127,4.721918,4.664185,7.956918,7.451391c28.039183,25.511189,58.319719,43.793677,92.332222,60.838938,32.962828-15.054344,63.350766-34.82517,90.150662-59.281817l21.023614-20.972418c35.598579-38.849496,58.150606-84.555395,70.882841-135.713561,8.758359-35.970628,13.366765-72.292591,14.562388-109.353075.919002-28.485734.458595-56.633597-.82059-84.955724-72.196701-9.181213-139.737567-37.386453-195.82588-83.818935Z"/>
  <path class="st0" d="M462.038082,136.399399l-1.096216-29.376669c-26.556138-2.095405-52.012543-7.135973-77.52732-14.478791-21.457517-6.175226-41.72275-14.492504-61.636434-24.437178-23.934137-11.952502-45.925391-26.493751-66.392388-43.531516l-11.217677-9.338175c-20.590634,18.386229-42.643707,33.78825-66.737116,46.716919-26.425217,13.769865-53.997207,24.65031-82.781518,32.470482-22.703519,6.168084-45.20428,10.858773-68.948911,12.557117-3.036506,57.746546-4.625708,113.662833,2.731285,170.602326,8.231372,63.151241,25.931556,117.153031,64.746767,168.13544,38.672815,50.795319,85.193158,84.484872,142.10842,112.249672l9.551734,4.25174c49.839971-22.880484,93.818926-53.727372,129.992916-95.006804,32.19855-36.742935,54.261145-77.924914,67.875042-124.855854,8.473247-29.209723,13.616953-58.731986,16.6946-88.937488l2.966551-43.508067c.823006-24.655036.592038-48.810512-.329735-73.513155ZM441.118317,212.234628c-1.195623,37.060484-5.804029,73.382448-14.562388,109.353075-12.732235,51.158166-35.284262,96.864065-70.882841,135.713561l-21.023614,20.972418c-26.799896,24.456647-57.187833,44.227473-90.150662,59.281817-34.012503-17.045261-64.293039-35.327749-92.332222-60.838938l-7.956918-7.451391-4.721918-4.664185-6.913142-7.161127c-17.585464-18.216263-32.175066-38.910106-44.725647-61.013202-23.681356-41.705732-33.87739-84.604743-39.303614-131.987848-5.0141-46.013394-3.997147-91.150028-2.104074-136.971074,71.595461-10.479228,141.712568-37.733668,198.030569-84.007767,56.088313,46.432482,123.629179,74.637723,195.82588,83.818935,1.279185,28.322128,1.739592,56.46999.82059,84.955724Z"/>
  <path class="st0" d="M201.873971,434.344111c.853666-24.869376,12.178922-48.847746,28.688386-67.183419l15.139504-15.107885,18.77217-17.664869c8.402688-7.907037,14.621968-16.984935,17.786552-27.922509l1.324696-8.147455c.892605-5.490068.325436-10.990724-1.636561-16.380532-4.371896-12.009951-7.359622-24.135688-8.293262-36.984099l-.11273-20.588538c-.005258-.962453.02725-1.575311-.358477-2.596598l-19.106062,16.3962c-5.181153,4.446292-10.3347,8.503339-16.895653,10.293487-12.878397,3.51386-24.718453-3.425146-28.356767-16.292707-2.868423-10.144732-2.280186-20.878127.383311-31.352132l6.948599-27.324822c1.804431-7.095827,2.143759-14.007618,1.030418-21.267051-.149644-.975847.591861-2.286794,1.467483-2.746526,3.306305-1.735897,5.661882,10.925495,4.304784,18.548841l-3.178937,17.85736c-2.669289,14.994515-10.424195,35.42236-.576264,49.43147,5.527728,7.863409,18.152739,7.12972,26.687023-.085338l15.139753-12.79956,6.648458-5.535367,5.046679-3.65487,7.941428-6.111702c4.968091-3.823415,8.30829-9.866192,6.299502-16.401991-4.671362-15.198765-12.541627-28.902726-22.887092-40.998797-5.946141-6.952329-12.884508-12.11792-21.063227-16.315658-16.742669-8.593189-36.062752-9.626911-54.07409-4.131158-17.496928,5.33879-31.14646,17.039257-34.78783,35.19292-1.246926,6.216331-6.099125,10.259665-12.219069,11.644546l-34.105479,7.71778c-4.21607.954068-7.326474,4.645497-7.279755,8.894502.047856,4.351396,2.571693,7.971592,3.448311,12.042601,2.35213,10.923079,8.556276,20.659665,18.984592,25.535952,5.098941,2.384283,10.77951,4.16928,16.523497,4.256466l22.030406.334425c4.266946.064768,8.881428,1.944127,11.385085,5.268622,4.163027,5.52787,5.152339,12.187733,5.01982,19.016425-.368958,19.012623-10.816637,29.833488-20.712211,43.370432l-7.891547,10.795498c-9.90307,14.619126-16.892775,30.262204-21.187114,47.405949-4.793009,16.620595-13.536908,44.562644-8.19055,67.545236,30.063496,38.119467,65.613153,64.662211,108.233731,86.598076-17.619784-19.721762-21.740746-38.65093-25.2885-57.162999-1.478639-7.715648-1.307181-15.403016-1.033012-23.390204Z"/>
  <path class="st0" d="M364.503036,396.237825c.683487-5.546629.331263-10.953349-.264257-16.616971-1.204079-11.451451-5.910471-21.517524-11.766691-31.324846-6.470747-10.836462-10.429489-21.250744-2.412919-32.058677,3.41296-4.601336,8.607116-6.109108,14.034087-5.55139,4.666423.479557,8.392136-1.329208,11.341634-4.75034l5.17021-5.996982c1.279221-1.483791,1.650381-4.829177,2.530836-6.598577l2.33259-4.687633c1.142118-2.295285-1.608352-3.963928-3.004566-5.197957l-6.599288-5.832771c-6.32185-5.587522.357554-15.020699-13.295673-26.368017-4.608015-3.829739-10.751159-5.681529-16.449492-8.031918-3.379671-4.958499-3.239548-11.843005-2.196127-17.684978l1.690315-9.463838c.320747-1.795726-.237966-4.051469-1.969529-5.227161-11.088639,6.057521-20.477016,14.53528-26.918843,25.373518-1.182975,1.990278-1.990846,5.259172-3.986382,6.373649-14.16149,7.909169-20.971352,22.120327-22.150632,38.081167l-.431558,5.840623c.295877,10.764233-1.693619,20.746176-6.32757,30.460024-6.017055,12.613181-15.872589,21.965247-25.759849,31.676005l-21.44828,21.065324-12.298154,15.696157c-4.121744,5.260593-6.778597,11.152909-9.479612,17.354603-6.077666,13.954433-8.34158,28.955556-7.066338,44.132045,1.082715,12.885147,3.762094,24.813419,8.688688,36.753522l7.396038,15.304567,4.467324,7.168517,4.132331,5.703556,5.537534,6.726265,2.300437,2.260575,5.480121,2.439351c21.514113-9.876673,41.7419-21.501749,60.473568-35.140871,8.550911-13.547744,11.069774-29.7468,3.033841-44.165974-2.361758-4.237778-4.914551-7.694118-7.871616-11.460724,3.285664.065123,4.75066,2.251941,6.772131,3.763089,6.892465,5.152481,10.998647,12.639755,13.252862,20.983041,1.650524,6.108859,1.454125,12.079479.383454,18.784178,8.630494-7.153062,16.895084-14.797512,24.772811-22.959818,7.68481-13.668575,12.824394-28.538742,16.306847-43.838584l1.599719-12.981748Z"/>
</svg>